<svg width="862" height="137" viewBox="0 0 862 137" fill="none" xmlns="http://www.w3.org/2000/svg">
<g clip-path="url(#clip0_2001_34)">
<path d="M245.361 137C268.534 137 284.245 125.881 295.243 110.791L281.299 103.048C273.837 114.365 260.286 122.307 245.361 122.307C216.688 122.307 194.889 99.871 194.889 68.5C194.889 36.9304 216.688 14.6928 245.361 14.6928C260.286 14.6928 273.837 22.8333 281.299 33.9522L295.046 26.2087C284.638 11.3174 268.534 0 245.361 0C207.654 0 178 27.7971 178 68.5C178 109.203 207.654 137 245.361 137Z" fill="black"/>
<path d="M425.209 134.617V2.18359H408.909V59.1676H332.318V2.18359H316.018V134.617H332.318V73.8604H408.909V134.617H425.209Z" fill="black"/>
<path d="M567.964 134.617L515.136 2.18359H494.908L442.277 134.617H460.933L472.52 105.232H537.721L549.307 134.617H567.964ZM532.811 90.5386H477.233L505.12 19.2589L532.811 90.5386Z" fill="black"/>
<path d="M601.3 134.617V82.001H637.631C663.554 82.001 678.676 63.7343 678.676 42.0923C678.676 20.4502 663.947 2.18359 637.631 2.18359H585V134.617H601.3ZM635.667 67.3082H601.3V16.8763H635.667C651.182 16.8763 661.787 27.201 661.787 42.0923C661.787 56.9836 651.182 67.3082 635.667 67.3082Z" fill="black"/>
<path d="M16.3 134.617V2.18359H0V134.617H16.3Z" fill="black"/>
<path d="M155.391 134.617V2.18359H139.091V105.629L63.6793 2.18359H46.9863V134.617H63.2863V28.9879L139.68 134.617H155.391Z" fill="black"/>
<path d="M715.3 134.617V2.18359H699V134.617H715.3Z" fill="black"/>
<g filter="url(#filter0_d_2001_34)">
<path d="M854.391 134.617V2.18359H838.091V105.629L762.679 2.18359H745.986V134.617H762.286V28.9879L838.68 134.617H854.391Z" fill="black"/>
<path d="M761.786 28.9879V134.117H746.486V2.68359H762.425L837.687 105.923L838.591 107.163V105.629V2.68359H853.891V134.117H838.936L762.691 28.6949L761.786 27.4434V28.9879Z" stroke="black"/>
</g>
</g>
<defs>
<filter id="filter0_d_2001_34" x="741.986" y="2.18359" width="116.404" height="140.434" filterUnits="userSpaceOnUse" color-interpolation-filters="sRGB">
<feFlood flood-opacity="0" result="BackgroundImageFix"/>
<feColorMatrix in="SourceAlpha" type="matrix" values="0 0 0 0 0 0 0 0 0 0 0 0 0 0 0 0 0 0 127 0" result="hardAlpha"/>
<feOffset dy="4"/>
<feGaussianBlur stdDeviation="2"/>
<feComposite in2="hardAlpha" operator="out"/>
<feColorMatrix type="matrix" values="0 0 0 0 0 0 0 0 0 0 0 0 0 0 0 0 0 0 0.25 0"/>
<feBlend mode="normal" in2="BackgroundImageFix" result="effect1_dropShadow_2001_34"/>
<feBlend mode="normal" in="SourceGraphic" in2="effect1_dropShadow_2001_34" result="shape"/>
</filter>
<clipPath id="clip0_2001_34">
<rect width="862" height="137" fill="white"/>
</clipPath>
</defs>
</svg>
